<?xml version="1.0" encoding="utf-8"?>
<!-- Generator: Adobe Illustrator 20.0.0, SVG Export Plug-In . SVG Version: 6.00 Build 0)  -->
<svg version="1.1" id="Layer_1" xmlns="http://www.w3.org/2000/svg" xmlns:xlink="http://www.w3.org/1999/xlink" x="0px" y="0px"
	 viewBox="0 0 148.9 105" style="enable-background:new 0 0 148.9 105;" xml:space="preserve">
<g>
	<path d="M20.1,29.1c0.1-0.4,0.1-0.5,0.8-0.5c0.3,0,0.3,0,0.3-0.2c0-0.1-0.1-0.1-0.1-0.1c-0.3,0-1,0-1.3,0c-0.3,0-1,0-1.3,0
		c-0.1,0-0.2,0-0.2,0.2c0,0.1,0.1,0.1,0.3,0.1c0,0,0.2,0,0.4,0c0.2,0,0.3,0,0.3,0.2c0,0,0,0.1,0,0.2l-0.6,2.4h-3l0.6-2.3
		c0.1-0.4,0.1-0.5,0.8-0.5c0.3,0,0.3,0,0.3-0.2c0-0.1-0.1-0.1-0.1-0.1c-0.3,0-1,0-1.3,0c-0.3,0-1,0-1.3,0c-0.1,0-0.2,0-0.2,0.2
		c0,0.1,0.1,0.1,0.3,0.1c0,0,0.2,0,0.4,0c0.2,0,0.3,0,0.3,0.2c0,0,0,0.1,0,0.2l-1.3,5.4c-0.1,0.4-0.1,0.5-0.9,0.5
		c-0.2,0-0.3,0-0.3,0.2c0,0.1,0.1,0.1,0.1,0.1c0.3,0,1,0,1.3,0c0.2,0,0.4,0,0.6,0c0.2,0,0.4,0,0.6,0c0.1,0,0.2,0,0.2-0.2
		c0-0.1-0.1-0.1-0.3-0.1c-0.4,0-0.6,0-0.6-0.2l0-0.2l0.7-2.7h3c-0.4,1.7-0.6,2.6-0.7,2.8c-0.1,0.3-0.3,0.3-0.9,0.3
		c-0.1,0-0.2,0-0.2,0.2c0,0.1,0.1,0.1,0.1,0.1c0.3,0,1,0,1.3,0c0.2,0,0.4,0,0.6,0c0.2,0,0.4,0,0.6,0c0.1,0,0.2,0,0.2-0.2
		c0-0.1-0.1-0.1-0.3-0.1c-0.4,0-0.6,0-0.6-0.2l0-0.2L20.1,29.1z"/>
	<path d="M23.6,27.7c0.1-0.1,0.1-0.2,0.1-0.2c0-0.2-0.2-0.4-0.4-0.4c-0.3,0-0.3,0.2-0.4,0.3l-0.9,3l0,0.1l0.3,0.2c0,0,0.1,0,0.1-0.1
		L23.6,27.7z"/>
	<path d="M34,33.8c0.1,0,0.3,0,0.3-0.2s-0.2-0.2-0.3-0.2h-5.9c-0.1,0-0.3,0-0.3,0.2s0.2,0.2,0.3,0.2H34z M34,31.9
		c0.1,0,0.3,0,0.3-0.2s-0.2-0.2-0.3-0.2h-6c-0.1,0-0.3,0-0.3,0.2s0.2,0.2,0.3,0.2H34z"/>
	<path d="M42.7,10.3c0-0.8,0.2-2.7,2-4c0.1-0.1,0.1-0.1,0.1-0.3c0-0.2,0-0.2-0.3-0.2h-0.2c-2.1,1.2-2.9,3-2.9,4.5v4.3
		c0,0.3,0,0.3,0.3,0.3h0.6c0.3,0,0.3,0,0.3-0.3V10.3z"/>
	<path d="M42.7,14.9c0-0.3,0-0.3-0.3-0.3h-0.6c-0.3,0-0.3,0-0.3,0.3v2.7c0,0.3,0,0.3,0.3,0.3h0.6c0.3,0,0.3,0,0.3-0.3V14.9z"/>
	<path d="M42.7,17.9c0-0.3,0-0.3-0.3-0.3h-0.6c-0.3,0-0.3,0-0.3,0.3v2.7c0,0.3,0,0.3,0.3,0.3h0.6c0.3,0,0.3,0,0.3-0.3V17.9z"/>
	<path d="M42.7,20.9c0-0.3,0-0.3-0.3-0.3h-0.6c-0.3,0-0.3,0-0.3,0.3v2.7c0,0.3,0,0.3,0.3,0.3h0.6c0.3,0,0.3,0,0.3-0.3V20.9z"/>
	<path d="M41.5,41.5c0,0.3,0,0.3,0.3,0.3h0.6c0.3,0,0.3,0,0.3-0.3v-4.2c0-1.2-0.5-3.2-2.7-4.6c2.3-1.4,2.7-3.4,2.7-4.6v-4.2
		c0-0.3,0-0.3-0.3-0.3h-0.6c-0.3,0-0.3,0-0.3,0.3v4.2c0,0.8-0.2,2.9-2,4.3c-0.1,0.1-0.1,0.1-0.1,0.3s0,0.2,0.1,0.3
		c0.3,0.2,0.9,0.7,1.4,1.7c0.4,0.8,0.6,1.7,0.6,2.6V41.5z"/>
	<path d="M42.7,41.8c0-0.3,0-0.3-0.3-0.3h-0.6c-0.3,0-0.3,0-0.3,0.3v2.7c0,0.3,0,0.3,0.3,0.3h0.6c0.3,0,0.3,0,0.3-0.3V41.8z"/>
	<path d="M42.7,44.8c0-0.3,0-0.3-0.3-0.3h-0.6c-0.3,0-0.3,0-0.3,0.3v2.7c0,0.3,0,0.3,0.3,0.3h0.6c0.3,0,0.3,0,0.3-0.3V44.8z"/>
	<path d="M42.7,47.8c0-0.3,0-0.3-0.3-0.3h-0.6c-0.3,0-0.3,0-0.3,0.3v2.7c0,0.3,0,0.3,0.3,0.3h0.6c0.3,0,0.3,0,0.3-0.3V47.8z"/>
	<path d="M44.6,59.6c0.2,0,0.3,0,0.3-0.2c0-0.2,0-0.2,0-0.2c-0.3-0.2-1-0.7-1.5-1.7c-0.4-0.8-0.6-1.5-0.6-2.4v-4.3
		c0-0.3,0-0.3-0.3-0.3h-0.6c-0.3,0-0.3,0-0.3,0.3V55c0,1.5,0.8,3.4,2.9,4.5H44.6z"/>
	<path d="M84.2,13c0,0.1-0.1,0.2-0.2,0.3c-0.2,0.2-0.4,0.3-0.7,0.3c-0.8,0-1.4-0.8-1.4-2c0-1.1,0.5-1.9,1.2-1.9c0.5,0,1,0.5,1,1V13z
		 M84.3,14.1l1.5-0.5v-0.2c-0.2,0-0.2,0-0.2,0c-0.4,0-0.4-0.1-0.4-0.6V7.2l0,0c-0.5,0.2-0.8,0.3-1.5,0.4v0.2l0.2,0
		c0.4,0,0.5,0.1,0.5,0.5v1.6c-0.4-0.3-0.6-0.4-1-0.4c-1.1,0-2.1,1.1-2.1,2.5c0,1.3,0.7,2.1,1.8,2.1c0.6,0,0.9-0.2,1.3-0.7L84.3,14.1
		L84.3,14.1z M77.4,10.9c0.1-0.8,0.4-1.1,1.1-1.1s0.8,0.3,1,1.1H77.4z M80.5,12.4c-0.5,0.8-0.9,1-1.5,1c-0.6,0-1-0.3-1.3-0.9
		c-0.2-0.4-0.2-0.7-0.3-1.3h3.1c-0.1-0.6-0.2-0.9-0.4-1.3c-0.3-0.4-0.8-0.6-1.3-0.6c-0.5,0-1,0.2-1.3,0.5c-0.5,0.4-0.7,1.1-0.7,1.9
		c0,1.4,0.7,2.2,1.9,2.2c0.9,0,1.7-0.6,2.1-1.7L80.5,12.4z M71.6,10c0.1,0,0.2,0,0.3,0c0.3,0,0.4,0.1,0.4,0.6v2.5
		c0,0.6-0.1,0.7-0.6,0.7V14h2.1v-0.1c-0.5,0-0.7-0.2-0.7-0.5v-2.8c0.5-0.4,0.7-0.6,1-0.6c0.5,0,0.7,0.3,0.7,1V13
		c0,0.6-0.1,0.8-0.6,0.8V14h2.1v-0.1c-0.5,0-0.6-0.2-0.6-0.7v-2.3c0-0.9-0.4-1.5-1.2-1.5c-0.5,0-0.8,0.2-1.4,0.8V9.4l-0.1,0
		c-0.5,0.2-0.8,0.3-1.4,0.4V10z M66.2,9.9h0.7v3.2c0,0.6-0.1,0.8-0.7,0.8V14h2.2v-0.1c-0.6,0-0.7-0.2-0.7-0.7V9.9h0.9c1,0,1,0,1,0.6
		V13c0,0.7-0.1,0.8-0.7,0.8V14h2.2v-0.1c-0.6,0-0.7-0.2-0.7-0.8v-2.6c0-0.2,0-0.4,0-1l0,0c-0.4,0.1-0.7,0.1-1.1,0.1h-1.6V9.1
		c0-0.4,0-0.7,0.1-0.9c0.1-0.4,0.5-0.7,1-0.7c0.3,0,0.5,0.1,0.7,0.5c0.2,0.3,0.3,0.4,0.5,0.4c0.2,0,0.4-0.2,0.4-0.4
		c0-0.4-0.5-0.7-1.3-0.7c-0.8,0-1.3,0.3-1.7,0.7c-0.3,0.4-0.4,0.8-0.5,1.6h-0.7V9.9z M62.5,10.9c0.1-0.8,0.4-1.1,1.1-1.1
		c0.6,0,0.8,0.3,1,1.1H62.5z M65.6,12.4c-0.5,0.8-0.9,1-1.5,1c-0.6,0-1-0.3-1.3-0.9c-0.2-0.4-0.2-0.7-0.3-1.3h3.1
		c-0.1-0.6-0.2-0.9-0.4-1.3c-0.3-0.4-0.8-0.6-1.3-0.6c-0.5,0-1,0.2-1.3,0.5c-0.5,0.4-0.7,1.1-0.7,1.9c0,1.4,0.7,2.2,1.9,2.2
		c0.9,0,1.7-0.6,2.1-1.7L65.6,12.4z M59.9,13c0,0.1-0.1,0.2-0.2,0.3c-0.2,0.2-0.4,0.3-0.7,0.3c-0.8,0-1.4-0.8-1.4-2
		c0-1.1,0.5-1.9,1.2-1.9c0.5,0,1,0.5,1,1V13z M59.9,14.1l1.5-0.5v-0.2c-0.2,0-0.2,0-0.2,0c-0.4,0-0.4-0.1-0.4-0.6V7.2l0,0
		c-0.5,0.2-0.8,0.3-1.5,0.4v0.2l0.2,0c0.4,0,0.5,0.1,0.5,0.5v1.6c-0.4-0.3-0.6-0.4-1-0.4c-1.1,0-2.1,1.1-2.1,2.5
		c0,1.3,0.7,2.1,1.8,2.1c0.6,0,0.9-0.2,1.3-0.7L59.9,14.1L59.9,14.1z M51.7,10c0.1,0,0.2,0,0.3,0c0.3,0,0.4,0.1,0.4,0.6v2.5
		c0,0.6-0.1,0.7-0.6,0.7V14h2.1v-0.1c-0.5,0-0.7-0.2-0.7-0.5v-2.8c0.5-0.4,0.7-0.6,1-0.6c0.5,0,0.7,0.3,0.7,1V13
		c0,0.6-0.1,0.8-0.6,0.8V14h2.1v-0.1c-0.5,0-0.6-0.2-0.6-0.7v-2.3c0-0.9-0.4-1.5-1.2-1.5c-0.5,0-0.8,0.2-1.4,0.8V9.4l-0.1,0
		c-0.5,0.2-0.8,0.3-1.4,0.4V10z M51.3,13.5L51.3,13.5c-0.5,0-0.6-0.1-0.6-0.6V9.5h-1.6v0.2c0.6,0,0.7,0.1,0.7,0.6v2.3
		c0,0.3,0,0.4-0.2,0.5c-0.3,0.2-0.6,0.3-0.9,0.3c-0.4,0-0.7-0.3-0.7-0.8V9.5h-1.5v0.1c0.5,0,0.6,0.2,0.6,0.6v2.5
		c0,0.8,0.5,1.3,1.2,1.3c0.4,0,0.8-0.2,1-0.4l0.4-0.4v0.8l0,0c0.5-0.2,0.9-0.3,1.4-0.4V13.5z"/>
	<path d="M106.1,7.1L106,7c0,0,0,0-0.1,0.1l-0.7,0.8c-0.1-0.1-0.5-0.9-1.7-0.9c-2.2,0-4.5,2.2-4.5,4.5c0,1.6,1.2,2.7,2.7,2.7
		c0.9,0,1.6-0.4,2.2-0.9c0.9-0.8,1.1-1.7,1.1-1.8c0-0.1-0.1-0.1-0.1-0.1l-0.1,0.1c-0.1,0.3-0.3,1-1,1.6c-0.7,0.6-1.3,0.7-1.8,0.7
		c-0.9,0-2-0.5-2-2.1c0-0.6,0.2-2.2,1.2-3.3c0.6-0.7,1.5-1.2,2.4-1.2c1,0,1.6,0.8,1.6,1.9c0,0.4,0,0.4,0,0.5s0.1,0.1,0.1,0.1
		c0.1,0,0.1,0,0.2-0.2L106.1,7.1z M87.9,14c0-0.7-0.2-1-0.6-1c-0.3,0-0.5,0.2-0.5,0.5c0,0.3,0.2,0.5,0.5,0.5c0.1,0,0.2,0,0.3-0.1
		l0,0c0,0,0,0,0,0.1c0,0.7-0.3,1.3-0.7,1.7c-0.1,0.1-0.1,0.1-0.1,0.2l0.1,0.1C87.1,15.9,87.9,15.2,87.9,14z"/>
	<path d="M122.2,14c-0.4,0-1-0.2-1.2-1.2c-0.1-0.6-0.1-1.5-0.1-2.1c0-0.6,0-1.3,0.1-1.8c0.2-1.2,0.9-1.3,1.2-1.3
		c0.3,0,1,0.2,1.2,1.2c0.1,0.6,0.1,1.3,0.1,1.9c0,0.7,0,1.4-0.1,2.1C123.2,13.7,122.6,14,122.2,14z M124.3,10.8c0-0.8,0-1.6-0.4-2.3
		c-0.5-1-1.3-1.1-1.7-1.1c-0.6,0-1.3,0.3-1.7,1.2c-0.3,0.7-0.4,1.5-0.4,2.3c0,0.7,0,1.6,0.4,2.4c0.4,0.8,1.2,1,1.6,1
		c0.5,0,1.3-0.2,1.7-1.2C124.2,12.4,124.3,11.6,124.3,10.8z M116,12.7c0.1,0,0.3,0,0.3-0.2s-0.2-0.2-0.3-0.2h-5.9
		c-0.1,0-0.3,0-0.3,0.2s0.2,0.2,0.3,0.2H116z M116,10.8c0.1,0,0.3,0,0.3-0.2s-0.2-0.2-0.3-0.2h-6c-0.1,0-0.3,0-0.3,0.2
		s0.2,0.2,0.3,0.2H116z"/>
	<path d="M53.6,19.6L53.6,19.6l-0.2,0l-0.5,0.5c-0.1-0.1-0.5-0.6-1.3-0.6c-1.7,0-3.4,1.5-3.4,3.1c0,1.1,0.8,2,2.2,2
		c0.6,0,1.3-0.2,1.6-0.6c0.1,0.2,0.3,0.4,0.3,0.4c0.1,0,0.1,0,0.1-0.2l0.1-0.5c0-0.1,0.1-0.5,0.2-0.6c0.1-0.3,0.1-0.3,0.5-0.3
		c0,0,0.2,0,0.2-0.1l-0.1-0.1c-0.2,0-0.5,0-0.8,0c-0.2,0-0.4,0-0.6,0c-0.2,0-0.4,0-0.6,0c0,0-0.2,0-0.2,0.2c0,0.1,0.1,0.1,0.3,0.1
		c0.1,0,0.3,0,0.4,0c0.2,0,0.2,0,0.2,0.1c0,0,0,0,0,0.2c0,0.2-0.1,0.5-0.2,0.6c-0.2,0.4-0.9,0.6-1.4,0.6c-0.7,0-1.6-0.3-1.6-1.5
		c0-0.7,0.3-1.7,0.9-2.2c0.7-0.7,1.5-0.8,1.9-0.8c0.8,0,1.3,0.6,1.3,1.4c0,0.2,0,0.2,0,0.3c0,0.1,0.1,0.1,0.1,0.1
		c0.1,0,0.1,0,0.1-0.2L53.6,19.6z"/>
	<path d="M59.1,22.9c0.1,0,0.3,0,0.3-0.2c0-0.2-0.2-0.2-0.3-0.2H55c-0.1,0-0.3,0-0.3,0.2c0,0.2,0.2,0.2,0.3,0.2H59.1z"/>
	<path d="M62.3,24.2c-0.2,0-0.2,0-0.2-0.1c0,0,0,0,0-0.1l0.5-1.9H64c0.7,0,0.9,0.4,0.9,0.8c0,0.7-0.7,1.3-1.5,1.3H62.3z M62.6,21.9
		l0.4-1.7c0.1-0.2,0.1-0.2,0.4-0.2h1.1c0.7,0,0.9,0.5,0.9,0.7c0,0.6-0.6,1.2-1.6,1.2H62.6z M61.5,23.9c-0.1,0.2-0.1,0.3-0.6,0.3
		c-0.1,0-0.2,0-0.2,0.1c0,0.1,0.1,0.1,0.2,0.1h2.7c1.2,0,2.1-0.8,2.1-1.5c0-0.5-0.5-0.9-1.2-1c0.8-0.2,1.5-0.7,1.5-1.3
		c0-0.5-0.5-1-1.4-1H62c-0.1,0-0.2,0-0.2,0.2c0,0.1,0.1,0.1,0.2,0.1c0,0,0.1,0,0.3,0c0.1,0,0.2,0,0.2,0.1c0,0,0,0,0,0.2L61.5,23.9z"
		/>
	<polyline points="47.7,25.7 66.5,25.7 66.5,26.1 47.7,26.1 	"/>
	<path d="M59.9,27L59.9,27l-0.2,0l-0.5,0.5c-0.1-0.1-0.5-0.6-1.3-0.6c-1.7,0-3.4,1.5-3.4,3.1c0,1.1,0.9,2,2.1,2c0.4,0,1-0.1,1.8-0.7
		c0.6-0.5,0.7-1.1,0.7-1.1c0-0.1-0.1-0.1-0.1-0.1c-0.1,0-0.1,0-0.1,0.1c-0.3,1-1.3,1.5-2.1,1.5c-0.7,0-1.6-0.4-1.6-1.5
		c0-0.2,0-1.3,0.9-2.2c0.5-0.5,1.2-0.9,1.9-0.9c0.8,0,1.3,0.6,1.3,1.4c0,0.2,0,0.2,0,0.3c0,0.1,0.1,0.1,0.1,0.1c0.1,0,0.1,0,0.1-0.2
		L59.9,27z"/>
	<path d="M69.8,28.3c0-0.7-0.2-1-0.6-1c-0.3,0-0.5,0.2-0.5,0.5c0,0.3,0.2,0.5,0.5,0.5c0.1,0,0.2,0,0.3-0.1l0,0c0,0,0,0,0,0.1
		c0,0.7-0.3,1.3-0.7,1.7c-0.1,0.1-0.1,0.1-0.1,0.2l0.1,0.1C69,30.3,69.8,29.5,69.8,28.3z"/>
	<path d="M104.4,23.9h-1.2v-1.2c0-0.6,0.2-0.9,0.6-0.9c0.2,0,0.3,0.1,0.5,0.4c0.2,0.3,0.3,0.4,0.4,0.4c0.2,0,0.4-0.2,0.4-0.4
		c0-0.4-0.4-0.6-1-0.6c-0.6,0-1.1,0.3-1.4,0.7c-0.3,0.4-0.3,0.8-0.3,1.6h-0.8v0.3h0.8v3.1c0,0.7-0.1,0.8-0.8,0.9v0.1h2.6v-0.1
		c-0.8,0-0.9-0.1-0.9-0.9v-3.1h1.2V23.9z M99.8,21.6c-0.3,0-0.5,0.2-0.5,0.5s0.2,0.5,0.5,0.5c0.3,0,0.5-0.2,0.5-0.5
		C100.4,21.8,100.1,21.6,99.8,21.6z M100.3,23.8l-1.5,0.5v0.1l0.1,0c0.1,0,0.2,0,0.3,0c0.2,0,0.3,0.2,0.3,0.6v2.3
		c0,0.7-0.1,0.8-0.8,0.9v0.1h2.4v-0.1c-0.7,0-0.7-0.1-0.7-0.9L100.3,23.8L100.3,23.8z"/>
	<path d="M113.4,22.7c0.5-0.8,0.9-0.8,1.3-0.8c0.1,0,0.1-0.2,0.1-0.2l-0.1-0.1c-0.3,0-0.5,0-0.8,0c-0.3,0-0.7,0-1,0
		c-0.1,0-0.2,0-0.2,0.2c0,0.1,0.1,0.1,0.2,0.1c0.3,0,0.5,0.1,0.5,0.3c0,0.1-0.1,0.4-0.1,0.4l-3.1,4.9l-0.7-5.3
		c0-0.2,0.2-0.3,0.7-0.3c0.1,0,0.2,0,0.2-0.2l-0.1-0.1c-0.4,0-0.8,0-1.2,0c-0.2,0-0.4,0-0.5,0s-0.4,0-0.5,0c-0.1,0-0.2,0-0.2,0.2
		c0,0.1,0.1,0.1,0.2,0.1c0.6,0,0.6,0.1,0.6,0.3l0.8,6.1c0,0.2,0.1,0.2,0.2,0.2c0.2,0,0.2,0,0.3-0.2L113.4,22.7z"/>
	<path d="M124.8,27c0.1,0,0.3,0,0.3-0.2s-0.2-0.2-0.3-0.2h-5.9c-0.1,0-0.3,0-0.3,0.2s0.2,0.2,0.3,0.2H124.8z M124.8,25.1
		c0.1,0,0.3,0,0.3-0.2s-0.2-0.2-0.3-0.2h-6c-0.1,0-0.3,0-0.3,0.2s0.2,0.2,0.3,0.2H124.8z"/>
	<path d="M133.6,25c1-0.2,2.2-0.9,2.2-1.9c0-0.9-0.9-1.5-2.2-1.5h-2.8c-0.2,0-0.3,0-0.3,0.2c0,0.1,0.1,0.1,0.3,0.1c0,0,0.2,0,0.4,0
		c0.2,0,0.3,0,0.3,0.2c0,0,0,0.1,0,0.2l-1.3,5.4c-0.1,0.4-0.1,0.5-0.9,0.5c-0.2,0-0.3,0-0.3,0.2c0,0.1,0.1,0.1,0.1,0.1
		c0.3,0,1,0,1.3,0s1,0,1.3,0c0.1,0,0.2,0,0.2-0.2c0-0.1-0.1-0.1-0.3-0.1c-0.4,0-0.6,0-0.6-0.2l0-0.2l0.7-2.6h1.2
		c0.9,0,1.1,0.6,1.1,0.9c0,0.1-0.1,0.5-0.1,0.7c-0.1,0.3-0.2,0.6-0.2,0.8c0,1.1,1.2,1.1,1.3,1.1c0.8,0,1.2-1,1.2-1.1
		c0-0.1-0.1-0.1-0.1-0.1l-0.1,0.1c-0.2,0.7-0.7,0.9-0.9,0.9c-0.3,0-0.4-0.2-0.4-0.6c0-0.3,0.1-0.8,0.1-1.1c0-0.1,0-0.3,0-0.5
		C134.6,25.4,133.9,25.1,133.6,25z M132.2,22.2c0.1-0.2,0.1-0.3,0.3-0.4c0.1,0,0.4,0,0.6,0c0.7,0,1.8,0,1.8,1c0,0.3-0.2,1-0.5,1.4
		c-0.3,0.3-0.8,0.6-1.7,0.6h-1.1L132.2,22.2z"/>
	<path d="M49.9,38.5c-0.2,0-0.2,0-0.2-0.1c0,0,0,0,0-0.1l0.5-1.9h1.5c0.7,0,0.9,0.4,0.9,0.8c0,0.7-0.7,1.3-1.5,1.3H49.9z M50.2,36.2
		l0.4-1.7c0.1-0.2,0.1-0.2,0.4-0.2H52c0.7,0,0.9,0.5,0.9,0.7c0,0.6-0.6,1.2-1.6,1.2H50.2z M49.1,38.2c-0.1,0.2-0.1,0.3-0.6,0.3
		c-0.1,0-0.2,0-0.2,0.1c0,0.1,0.1,0.1,0.2,0.1h2.7c1.2,0,2.1-0.8,2.1-1.5c0-0.5-0.5-0.9-1.2-1c0.8-0.2,1.5-0.7,1.5-1.3
		c0-0.5-0.5-1-1.4-1h-2.5c-0.1,0-0.2,0-0.2,0.2c0,0.1,0.1,0.1,0.2,0.1c0,0,0.1,0,0.3,0c0.1,0,0.2,0,0.2,0.1c0,0,0,0,0,0.2L49.1,38.2
		z"/>
	<path d="M59.3,37.2c0.1,0,0.3,0,0.3-0.2c0-0.2-0.2-0.2-0.3-0.2h-4.2c-0.1,0-0.3,0-0.3,0.2c0,0.2,0.2,0.2,0.3,0.2H59.3z"/>
	<path d="M64.5,36.4c0.8-0.2,1.6-0.7,1.6-1.3c0-0.6-0.7-1.1-1.7-1.1h-2.1C62,34,62,34,62,34.2c0,0.1,0.1,0.1,0.2,0.1
		c0,0,0.1,0,0.3,0c0.1,0,0.2,0,0.2,0.1c0,0,0,0,0,0.2l-0.9,3.7c-0.1,0.2-0.1,0.3-0.6,0.3c-0.1,0-0.2,0-0.2,0.1l0.1,0.1
		c0.1,0,0.3,0,0.4,0c0.1,0,0.3,0,0.5,0c0.1,0,0.3,0,0.4,0s0.3,0,0.5,0c0,0,0.1,0,0.1-0.1c0-0.1-0.1-0.1-0.2-0.1c-0.1,0-0.1,0-0.3,0
		c-0.2,0-0.2,0-0.2-0.1c0,0,0,0,0-0.2l0.4-1.8h0.9c0.6,0,0.9,0.3,0.9,0.6c0,0.1-0.1,0.3-0.1,0.5c-0.1,0.3-0.1,0.4-0.1,0.5
		c0,0.6,0.5,0.8,1,0.8c0.6,0,0.9-0.7,0.9-0.8c0,0,0-0.1-0.1-0.1c-0.1,0-0.1,0-0.1,0.1c-0.1,0.3-0.4,0.6-0.6,0.6
		c-0.2,0-0.3-0.1-0.3-0.5c0-0.2,0-0.5,0.1-0.7c0-0.2,0-0.3,0-0.3c0-0.1,0-0.3-0.2-0.5C64.8,36.6,64.6,36.5,64.5,36.4z M63.2,34.5
		c0-0.2,0.1-0.2,0.2-0.2h0.4c0.6,0,1.5,0,1.5,0.7c0,0.3-0.1,0.7-0.5,1c-0.3,0.2-0.7,0.3-1.2,0.3h-0.9L63.2,34.5z"/>
	<polyline points="47.7,40 66.4,40 66.4,40.4 47.7,40.4 	"/>
	<path d="M59.8,41.3L59.8,41.3l-0.2,0l-0.5,0.5c-0.1-0.1-0.5-0.6-1.3-0.6c-1.7,0-3.4,1.5-3.4,3.1c0,1.1,0.9,2,2.1,2
		c0.4,0,1-0.1,1.8-0.7c0.6-0.5,0.7-1.1,0.7-1.1c0-0.1-0.1-0.1-0.1-0.1c-0.1,0-0.1,0-0.1,0.1c-0.3,1-1.3,1.5-2.1,1.5
		c-0.7,0-1.6-0.4-1.6-1.5c0-0.2,0-1.3,0.9-2.2c0.5-0.5,1.2-0.9,1.9-0.9c0.8,0,1.3,0.6,1.3,1.4c0,0.2,0,0.2,0,0.3
		c0,0.1,0.1,0.1,0.1,0.1c0.1,0,0.1,0,0.1-0.2L59.8,41.3z"/>
	<path d="M81,41.9l1.1-1c1.6-1.4,2.2-1.9,2.2-2.9c0-1.1-0.9-1.9-2.1-1.9c-1.1,0-1.9,0.9-1.9,1.8c0,0.6,0.5,0.6,0.5,0.6
		c0.2,0,0.5-0.1,0.5-0.5c0-0.3-0.2-0.5-0.5-0.5l-0.1,0c0.2-0.6,0.8-1,1.3-1c0.9,0,1.3,0.8,1.3,1.6c0,0.8-0.5,1.6-1,2.2l-1.9,2.1
		c-0.1,0.1-0.1,0.1-0.1,0.4h3.7l0.3-1.7H84c0,0.3-0.1,0.7-0.2,0.9c-0.1,0.1-0.7,0.1-0.9,0.1H81z M73.9,40.4h2.8c0.1,0,0.3,0,0.3-0.2
		S76.8,40,76.6,40h-2.8v-2.8c0-0.1,0-0.3-0.2-0.3s-0.2,0.2-0.2,0.3V40h-2.8c-0.1,0-0.3,0-0.3,0.2s0.2,0.2,0.3,0.2h2.8v2.8
		c0,0.1,0,0.3,0.2,0.3s0.2-0.2,0.2-0.3V40.4z"/>
	<path d="M86.7,42.7c0-0.7-0.2-1-0.6-1c-0.3,0-0.5,0.2-0.5,0.5c0,0.3,0.2,0.5,0.5,0.5c0.1,0,0.2,0,0.3-0.1l0,0c0,0,0,0,0,0.1
		c0,0.7-0.3,1.3-0.7,1.7c-0.1,0.1-0.1,0.1-0.1,0.2l0.1,0.1C85.9,44.6,86.7,43.9,86.7,42.7z"/>
	<path d="M104.4,38.2h-1.2v-1.2c0-0.6,0.2-0.9,0.6-0.9c0.2,0,0.3,0.1,0.5,0.4c0.2,0.3,0.3,0.4,0.4,0.4c0.2,0,0.4-0.2,0.4-0.4
		c0-0.4-0.4-0.6-1-0.6c-0.6,0-1.1,0.3-1.4,0.7c-0.3,0.4-0.3,0.8-0.3,1.6h-0.8v0.3h0.8v3.1c0,0.7-0.1,0.8-0.8,0.9v0.1h2.6v-0.1
		c-0.8,0-0.9-0.1-0.9-0.9v-3.1h1.2V38.2z M99.8,35.9c-0.3,0-0.5,0.2-0.5,0.5s0.2,0.5,0.5,0.5c0.3,0,0.5-0.2,0.5-0.5
		C100.4,36.1,100.1,35.9,99.8,35.9z M100.3,38.1l-1.5,0.5v0.1l0.1,0c0.1,0,0.2,0,0.3,0c0.2,0,0.3,0.2,0.3,0.6v2.3
		c0,0.7-0.1,0.8-0.8,0.9v0.1h2.4v-0.1c-0.7,0-0.7-0.1-0.7-0.9L100.3,38.1L100.3,38.1z"/>
	<path d="M113.4,37c0.5-0.8,0.9-0.8,1.3-0.8c0.1,0,0.1-0.2,0.1-0.2l-0.1-0.1c-0.3,0-0.5,0-0.8,0c-0.3,0-0.7,0-1,0
		c-0.1,0-0.2,0-0.2,0.2c0,0.1,0.1,0.1,0.2,0.1c0.3,0,0.5,0.1,0.5,0.3c0,0.1-0.1,0.4-0.1,0.4l-3.1,4.9l-0.7-5.3
		c0-0.2,0.2-0.3,0.7-0.3c0.1,0,0.2,0,0.2-0.2l-0.1-0.1c-0.4,0-0.8,0-1.2,0c-0.2,0-0.4,0-0.5,0c-0.2,0-0.4,0-0.5,0
		c-0.1,0-0.2,0-0.2,0.2c0,0.1,0.1,0.1,0.2,0.1c0.6,0,0.6,0.1,0.6,0.3l0.8,6.1c0,0.2,0.1,0.2,0.2,0.2c0.2,0,0.2,0,0.3-0.2L113.4,37z"
		/>
	<path d="M124.8,41.4c0.1,0,0.3,0,0.3-0.2s-0.2-0.2-0.3-0.2h-5.9c-0.1,0-0.3,0-0.3,0.2s0.2,0.2,0.3,0.2H124.8z M124.8,39.4
		c0.1,0,0.3,0,0.3-0.2s-0.2-0.2-0.3-0.2h-6c-0.1,0-0.3,0-0.3,0.2s0.2,0.2,0.3,0.2H124.8z"/>
	<path d="M136,35.8l-0.1-0.1c0,0,0,0-0.1,0.1l-0.7,0.8c-0.1-0.1-0.5-0.9-1.7-0.9c-2.2,0-4.5,2.2-4.5,4.5c0,1.6,1.1,2.7,2.7,2.7
		c0.4,0,0.9-0.1,1.2-0.2c0.5-0.2,0.7-0.4,0.9-0.6c0.1,0.2,0.3,0.6,0.4,0.6l0.1,0c0,0,0.1-0.4,0.2-0.6l0.2-0.8c0-0.2,0.1-0.3,0.1-0.5
		c0.1-0.4,0.1-0.5,0.7-0.5c0,0,0.2,0,0.2-0.2l-0.1-0.1c-0.2,0-0.8,0-1,0c-0.3,0-1.1,0-1.4,0c-0.1,0-0.2,0-0.2,0.2
		c0,0.1,0.1,0.1,0.3,0.1c0,0,0.3,0,0.5,0c0.3,0,0.3,0.1,0.3,0.2c0,0.1-0.1,0.5-0.2,0.9c-0.3,1.1-1.6,1.2-1.9,1.2c-1,0-2-0.6-2-2.1
		c0-0.3,0.1-2,1.1-3.2c0.5-0.7,1.5-1.3,2.5-1.3c1,0,1.6,0.8,1.6,1.9c0,0.4,0,0.4,0,0.5s0.1,0.1,0.1,0.1c0.1,0,0.1,0,0.2-0.2
		L136,35.8z"/>
	<path d="M51.9,50.8c0.8-0.2,1.6-0.7,1.6-1.3c0-0.6-0.7-1.1-1.7-1.1h-2.1c-0.1,0-0.2,0-0.2,0.2c0,0.1,0.1,0.1,0.2,0.1
		c0,0,0.1,0,0.3,0c0.1,0,0.2,0,0.2,0.1c0,0,0,0,0,0.2l-0.9,3.7c-0.1,0.2-0.1,0.3-0.6,0.3c-0.1,0-0.2,0-0.2,0.1l0.1,0.1
		c0.1,0,0.3,0,0.4,0c0.1,0,0.3,0,0.5,0c0.1,0,0.3,0,0.4,0s0.3,0,0.5,0c0,0,0.1,0,0.1-0.1c0-0.1-0.1-0.1-0.2-0.1c-0.1,0-0.1,0-0.3,0
		c-0.2,0-0.2,0-0.2-0.1c0,0,0,0,0-0.2l0.4-1.8h0.9c0.6,0,0.9,0.3,0.9,0.6c0,0.1-0.1,0.3-0.1,0.5c-0.1,0.3-0.1,0.4-0.1,0.5
		c0,0.6,0.5,0.8,1,0.8c0.6,0,0.9-0.7,0.9-0.8c0,0,0-0.1-0.1-0.1c-0.1,0-0.1,0-0.1,0.1c-0.1,0.3-0.4,0.6-0.6,0.6
		c-0.2,0-0.3-0.1-0.3-0.5c0-0.2,0-0.5,0.1-0.7c0-0.2,0-0.3,0-0.3c0-0.1,0-0.3-0.2-0.5C52.2,50.9,52,50.8,51.9,50.8z M50.6,48.9
		c0-0.2,0.1-0.2,0.2-0.2h0.4c0.6,0,1.5,0,1.5,0.7c0,0.3-0.1,0.7-0.5,1c-0.3,0.2-0.7,0.3-1.2,0.3h-0.9L50.6,48.9z"/>
	<path d="M59,51.6c0.1,0,0.3,0,0.3-0.2c0-0.2-0.2-0.2-0.3-0.2h-4.2c-0.1,0-0.3,0-0.3,0.2c0,0.2,0.2,0.2,0.3,0.2H59z"/>
	<path d="M65.9,48.3L65.9,48.3l-0.2,0l-0.5,0.5c-0.1-0.1-0.5-0.6-1.3-0.6c-1.7,0-3.4,1.5-3.4,3.1c0,1.1,0.8,2,2.2,2
		c0.6,0,1.3-0.2,1.6-0.6c0.1,0.2,0.3,0.4,0.3,0.4c0.1,0,0.1,0,0.1-0.2l0.1-0.5c0-0.1,0.1-0.5,0.2-0.6c0.1-0.3,0.1-0.3,0.5-0.3
		c0,0,0.2,0,0.2-0.1l-0.1-0.1c-0.2,0-0.5,0-0.8,0c-0.2,0-0.4,0-0.6,0c-0.2,0-0.4,0-0.6,0c0,0-0.2,0-0.2,0.2c0,0.1,0.1,0.1,0.3,0.1
		c0.1,0,0.3,0,0.4,0c0.2,0,0.2,0,0.2,0.1c0,0,0,0,0,0.2c0,0.2-0.1,0.5-0.2,0.6C64,52.8,63.4,53,62.8,53c-0.7,0-1.6-0.3-1.6-1.5
		c0-0.7,0.3-1.7,0.9-2.2c0.7-0.7,1.5-0.8,1.9-0.8c0.8,0,1.3,0.6,1.3,1.4c0,0.2,0,0.2,0,0.3c0,0.1,0.1,0.1,0.1,0.1
		c0.1,0,0.1,0,0.1-0.2L65.9,48.3z"/>
	<polyline points="47.7,54.4 66.2,54.4 66.2,54.8 47.7,54.8 	"/>
	<path d="M59.8,55.7L59.8,55.7l-0.2,0L59,56.2c-0.1-0.1-0.5-0.6-1.3-0.6c-1.7,0-3.4,1.5-3.4,3.1c0,1.1,0.9,2,2.1,2
		c0.4,0,1-0.1,1.8-0.7c0.6-0.5,0.7-1.1,0.7-1.1c0-0.1-0.1-0.1-0.1-0.1c-0.1,0-0.1,0-0.1,0.1c-0.3,1-1.3,1.5-2.1,1.5
		c-0.7,0-1.6-0.4-1.6-1.5c0-0.2,0-1.3,0.9-2.2c0.5-0.5,1.2-0.9,1.9-0.9c0.8,0,1.3,0.6,1.3,1.4c0,0.2,0,0.2,0,0.3
		c0,0.1,0.1,0.1,0.1,0.1c0.1,0,0.1,0,0.1-0.2L59.8,55.7z"/>
	<path d="M82.6,55.1h-2.4l2.4-3.7V55.1z M82.5,55.4v0.9c0,0.4,0,0.5-0.8,0.5h-0.2v0.3c0.4,0,0.9,0,1.3,0c0.4,0,0.9,0,1.4,0v-0.3H84
		c-0.7,0-0.8-0.1-0.8-0.5v-0.9h1v-0.3h-1v-4.5c0-0.2,0-0.3-0.2-0.3c-0.1,0-0.1,0-0.2,0.1l-3.1,4.7v0.3H82.5z M73.7,54.8h2.8
		c0.1,0,0.3,0,0.3-0.2s-0.2-0.2-0.3-0.2h-2.8v-2.8c0-0.1,0-0.3-0.2-0.3s-0.2,0.2-0.2,0.3v2.8h-2.8c-0.1,0-0.3,0-0.3,0.2
		s0.2,0.2,0.3,0.2h2.8v2.8c0,0.1,0,0.3,0.2,0.3s0.2-0.2,0.2-0.3V54.8z"/>
	<path d="M86.6,57c0-0.7-0.2-1-0.6-1c-0.3,0-0.5,0.2-0.5,0.5c0,0.3,0.2,0.5,0.5,0.5c0.1,0,0.2,0,0.3-0.1l0,0c0,0,0,0,0,0.1
		c0,0.7-0.3,1.3-0.7,1.7c-0.1,0.1-0.1,0.1-0.1,0.2l0.1,0.1C85.8,59,86.6,58.2,86.6,57z"/>
	<path d="M104.4,52.6h-1.2v-1.2c0-0.6,0.2-0.9,0.6-0.9c0.2,0,0.3,0.1,0.5,0.4c0.2,0.3,0.3,0.4,0.4,0.4c0.2,0,0.4-0.2,0.4-0.4
		c0-0.4-0.4-0.6-1-0.6c-0.6,0-1.1,0.3-1.4,0.7c-0.3,0.4-0.3,0.8-0.3,1.6h-0.8v0.3h0.8V56c0,0.7-0.1,0.8-0.8,0.9v0.1h2.6v-0.1
		c-0.8,0-0.9-0.1-0.9-0.9v-3.1h1.2V52.6z M99.8,50.2c-0.3,0-0.5,0.2-0.5,0.5s0.2,0.5,0.5,0.5c0.3,0,0.5-0.2,0.5-0.5
		C100.4,50.5,100.1,50.2,99.8,50.2z M100.3,52.5L98.8,53v0.1l0.1,0c0.1,0,0.2,0,0.3,0c0.2,0,0.3,0.2,0.3,0.6V56
		c0,0.7-0.1,0.8-0.8,0.9v0.1h2.4v-0.1c-0.7,0-0.7-0.1-0.7-0.9L100.3,52.5L100.3,52.5z"/>
	<path d="M113.4,51.4c0.5-0.8,0.9-0.8,1.3-0.8c0.1,0,0.1-0.2,0.1-0.2l-0.1-0.1c-0.3,0-0.5,0-0.8,0c-0.3,0-0.7,0-1,0
		c-0.1,0-0.2,0-0.2,0.2c0,0.1,0.1,0.1,0.2,0.1c0.3,0,0.5,0.1,0.5,0.3c0,0.1-0.1,0.4-0.1,0.4l-3.1,4.9l-0.7-5.3
		c0-0.2,0.2-0.3,0.7-0.3c0.1,0,0.2,0,0.2-0.2l-0.1-0.1c-0.4,0-0.8,0-1.2,0c-0.2,0-0.4,0-0.5,0s-0.4,0-0.5,0c-0.1,0-0.2,0-0.2,0.2
		c0,0.1,0.1,0.1,0.2,0.1c0.6,0,0.6,0.1,0.6,0.3l0.8,6.1c0,0.2,0.1,0.2,0.2,0.2c0.2,0,0.2,0,0.3-0.2L113.4,51.4z"/>
	<path d="M124.8,55.7c0.1,0,0.3,0,0.3-0.2s-0.2-0.2-0.3-0.2h-5.9c-0.1,0-0.3,0-0.3,0.2s0.2,0.2,0.3,0.2H124.8z M124.8,53.8
		c0.1,0,0.3,0,0.3-0.2s-0.2-0.2-0.3-0.2h-6c-0.1,0-0.3,0-0.3,0.2s0.2,0.2,0.3,0.2H124.8z"/>
	<path d="M131.1,56.7c-0.1,0-0.2,0-0.2,0c-0.1,0-0.1,0-0.1-0.1c0,0,0,0,0-0.2l0.7-2.8h1.9c1,0,1.1,0.7,1.1,1.2c0,1-0.9,2-2.1,2
		H131.1z M131.6,53.4l0.6-2.5c0.1-0.3,0.1-0.4,0.5-0.4h1.3c0.9,0,1.1,0.6,1.1,1c0,0.9-0.9,1.8-2.1,1.8H131.6z M130.1,56.3
		c-0.1,0.4-0.1,0.5-0.9,0.5c-0.2,0-0.3,0-0.3,0.2c0,0.1,0.1,0.1,0.3,0.1h3.6c1.6,0,2.8-1.2,2.8-2.2c0-0.7-0.6-1.3-1.5-1.4
		c1-0.2,2.1-0.9,2.1-1.9c0-0.7-0.7-1.4-1.9-1.4h-3.3c-0.2,0-0.3,0-0.3,0.2c0,0.1,0.1,0.1,0.3,0.1c0,0,0.2,0,0.4,0
		c0.2,0,0.3,0,0.3,0.2c0,0,0,0.1,0,0.2L130.1,56.3z"/>
	<path d="M27.9,80.7c0.1-0.4,0.1-0.5,0.8-0.5c0.3,0,0.3,0,0.3-0.2C29.1,80,29,80,29,80c-0.3,0-1,0-1.3,0c-0.3,0-1,0-1.3,0
		c-0.1,0-0.2,0-0.2,0.2c0,0.1,0.1,0.1,0.3,0.1c0,0,0.2,0,0.4,0c0.2,0,0.3,0,0.3,0.2c0,0,0,0.1,0,0.2l-0.6,2.4h-3l0.6-2.3
		c0.1-0.4,0.1-0.5,0.8-0.5c0.3,0,0.3,0,0.3-0.2c0-0.1-0.1-0.1-0.1-0.1c-0.3,0-1,0-1.3,0c-0.3,0-1,0-1.3,0c-0.1,0-0.2,0-0.2,0.2
		c0,0.1,0.1,0.1,0.3,0.1c0,0,0.2,0,0.4,0c0.2,0,0.3,0,0.3,0.2c0,0,0,0.1,0,0.2L21.9,86c-0.1,0.4-0.1,0.5-0.9,0.5
		c-0.2,0-0.3,0-0.3,0.2c0,0.1,0.1,0.1,0.1,0.1c0.3,0,1,0,1.3,0c0.2,0,0.4,0,0.6,0c0.2,0,0.4,0,0.6,0c0.1,0,0.2,0,0.2-0.2
		c0-0.1-0.1-0.1-0.3-0.1c-0.4,0-0.6,0-0.6-0.2l0-0.2l0.7-2.7h3C26,85,25.8,86,25.7,86.1c-0.1,0.3-0.3,0.3-0.9,0.3
		c-0.1,0-0.2,0-0.2,0.2c0,0.1,0.1,0.1,0.1,0.1c0.3,0,1,0,1.3,0c0.2,0,0.4,0,0.6,0c0.2,0,0.4,0,0.6,0c0.1,0,0.2,0,0.2-0.2
		c0-0.1-0.1-0.1-0.3-0.1c-0.4,0-0.6,0-0.6-0.2l0-0.2L27.9,80.7z"/>
	<path d="M39,85.4c0.1,0,0.3,0,0.3-0.2S39.2,85,39,85h-5.9c-0.1,0-0.3,0-0.3,0.2s0.2,0.2,0.3,0.2H39z M39,83.5c0.1,0,0.3,0,0.3-0.2
		s-0.2-0.2-0.3-0.2h-6c-0.1,0-0.3,0-0.3,0.2s0.2,0.2,0.3,0.2H39z"/>
	<path d="M47.2,87.9c0-1.1-0.8-2.8-2.5-3.7c1.1-0.6,2.4-1.7,2.5-3.6l0-0.1v-6.9c0-0.8,0-1,0.1-1.4c0.2-0.8,0.7-1.8,1.9-2.5
		c0.1,0,0.1-0.1,0.1-0.2c0-0.2,0-0.2-0.2-0.2c-0.2,0-0.2,0-0.5,0.2c-2.2,1.3-2.4,3.1-2.4,3.5V80c0,0.7,0,1.5-0.5,2.4
		c-0.5,0.8-1,1.2-1.4,1.5c-0.1,0.1-0.1,0.1-0.1,0.3c0,0.2,0,0.2,0.1,0.2c0.8,0.6,1.8,1.4,2,3.1c0,0.2,0,0.2,0,0.4v7.7
		c0,0.8,0.5,2.5,2.4,3.5c0.2,0.1,0.2,0.1,0.4,0.1c0.2,0,0.2,0,0.2-0.2c0-0.2,0-0.2,0-0.2c-0.4-0.3-1.7-1.1-2-2.8c0-0.3,0-0.3,0-0.4
		V87.9z"/>
	<path d="M57.8,71.8c0.1-0.3,0.1-0.3,0.6-0.3c0.2,0,0.2,0,0.2-0.2c0,0,0-0.1-0.1-0.1c-0.2,0-0.7,0-0.9,0c-0.1,0-0.4,0-0.5,0
		c-0.1,0-0.3,0-0.4,0c0,0-0.1,0-0.1,0.2c0,0.1,0.1,0.1,0.2,0.1c0,0,0.1,0,0.3,0c0.1,0,0.2,0,0.2,0.1c0,0,0,0,0,0.2l-0.4,1.6h-2.3
		l0.4-1.6c0.1-0.2,0.1-0.3,0.6-0.3c0.1,0,0.2,0,0.2-0.2c0,0,0-0.1-0.1-0.1c-0.2,0-0.7,0-0.9,0c-0.1,0-0.4,0-0.5,0
		c-0.1,0-0.3,0-0.4,0c0,0-0.1,0-0.1,0.2c0,0.1,0.1,0.1,0.2,0.1c0,0,0.1,0,0.3,0c0.1,0,0.2,0,0.2,0.1c0,0,0,0,0,0.2l-0.9,3.7
		c-0.1,0.2-0.1,0.3-0.6,0.3c-0.1,0-0.2,0-0.2,0.1l0.1,0.1c0.2,0,0.7,0,0.9,0c0.1,0,0.4,0,0.5,0c0.1,0,0.3,0,0.4,0c0,0,0.1,0,0.1-0.1
		c0-0.1-0.1-0.1-0.2-0.1c-0.1,0-0.1,0-0.3,0c-0.2,0-0.2,0-0.2-0.1c0,0,0,0,0-0.2l0.5-1.8h2.3l-0.5,1.8c-0.1,0.2-0.1,0.3-0.6,0.3
		c-0.1,0-0.2,0-0.2,0.1l0.1,0.1c0.2,0,0.7,0,0.9,0c0.1,0,0.4,0,0.5,0c0.1,0,0.3,0,0.4,0c0,0,0.1,0,0.1-0.1c0-0.1-0.1-0.1-0.2-0.1
		c-0.1,0-0.1,0-0.3,0c-0.2,0-0.2,0-0.2-0.1l0-0.2L57.8,71.8z"/>
	<path d="M60.8,70.7l0-0.2c0-0.2-0.2-0.3-0.3-0.3c-0.2,0-0.3,0.2-0.3,0.2l-0.8,2.2l0,0.1l0.2,0.1l0.1-0.1L60.8,70.7z"/>
	<polyline points="51.9,77.3 61.7,77.3 61.7,77.7 51.9,77.7 	"/>
	<path d="M56.8,83.3c-0.3,0-0.6-0.2-0.8-0.5c-0.1-0.2-0.2-0.6-0.2-1c0-0.7,0.4-1.2,1-1.2c0.3,0,0.5,0.1,0.7,0.4
		c0.2,0.3,0.2,0.6,0.2,1c0,0.4,0,0.7-0.2,1C57.4,83.2,57.1,83.3,56.8,83.3z M55.9,81.1c0-0.6,0-1.1,0.3-1.5c0.2-0.4,0.6-0.6,1.1-0.6
		c0.2,0,0.5,0.1,0.6,0.2c-0.2,0-0.3,0.1-0.3,0.3c0,0.2,0.1,0.3,0.3,0.3s0.3-0.1,0.3-0.3c0-0.4-0.3-0.8-1-0.8c-1,0-2,0.9-2,2.4
		c0,1.8,0.9,2.4,1.6,2.4c0.9,0,1.6-0.6,1.6-1.6c0-0.9-0.7-1.5-1.5-1.5C56.3,80.4,56,80.8,55.9,81.1z"/>
	<path d="M78,73.6c0-0.2,0-0.3-0.2-0.3C77.1,74,76.2,74,75.9,74v0.3c0.2,0,0.8,0,1.3-0.3v5.2c0,0.4,0,0.5-0.9,0.5H76V80
		c0.3,0,1.2,0,1.6,0s1.3,0,1.6,0v-0.3h-0.3c-0.9,0-0.9-0.1-0.9-0.5V73.6z M69.2,77.7h2.8c0.1,0,0.3,0,0.3-0.2s-0.2-0.2-0.3-0.2h-2.8
		v-2.8c0-0.1,0-0.3-0.2-0.3s-0.2,0.2-0.2,0.3v2.8H66c-0.1,0-0.3,0-0.3,0.2s0.2,0.2,0.3,0.2h2.8v2.8c0,0.1,0,0.3,0.2,0.3
		s0.2-0.2,0.2-0.3V77.7z"/>
	<path d="M95.8,75.5h-1.2v-1.2c0-0.6,0.2-0.9,0.6-0.9c0.2,0,0.3,0.1,0.5,0.4c0.2,0.3,0.3,0.4,0.4,0.4c0.2,0,0.4-0.2,0.4-0.4
		c0-0.4-0.4-0.6-1-0.6c-0.6,0-1.1,0.3-1.4,0.7c-0.3,0.4-0.3,0.8-0.3,1.6H93v0.3h0.8v3.1c0,0.7-0.1,0.8-0.8,0.9V80h2.6v-0.1
		c-0.8,0-0.9-0.1-0.9-0.9v-3.1h1.2V75.5z M91.3,73.2c-0.3,0-0.5,0.2-0.5,0.5s0.2,0.5,0.5,0.5c0.3,0,0.5-0.2,0.5-0.5
		C91.8,73.4,91.5,73.2,91.3,73.2z M91.7,75.4l-1.5,0.5v0.1l0.1,0c0.1,0,0.2,0,0.3,0c0.2,0,0.3,0.2,0.3,0.6v2.3
		c0,0.7-0.1,0.8-0.8,0.9V80h2.4v-0.1c-0.7,0-0.7-0.1-0.7-0.9L91.7,75.4L91.7,75.4z"/>
	<path d="M106.2,73.9c0.1-0.4,0.1-0.5,0.8-0.5c0.3,0,0.3,0,0.3-0.2c0-0.1-0.1-0.1-0.1-0.1c-0.3,0-1,0-1.3,0c-0.3,0-1,0-1.3,0
		c-0.1,0-0.2,0-0.2,0.2c0,0.1,0.1,0.1,0.3,0.1c0,0,0.2,0,0.4,0c0.2,0,0.3,0,0.3,0.2c0,0,0,0.1,0,0.2l-0.6,2.4h-3l0.6-2.3
		c0.1-0.4,0.1-0.5,0.8-0.5c0.3,0,0.3,0,0.3-0.2c0-0.1-0.1-0.1-0.1-0.1c-0.3,0-1,0-1.3,0c-0.3,0-1,0-1.3,0c-0.1,0-0.2,0-0.2,0.2
		c0,0.1,0.1,0.1,0.3,0.1c0,0,0.2,0,0.4,0c0.2,0,0.3,0,0.3,0.2c0,0,0,0.1,0,0.2l-1.3,5.4c-0.1,0.4-0.1,0.5-0.9,0.5
		c-0.2,0-0.3,0-0.3,0.2c0,0.1,0.1,0.1,0.1,0.1c0.3,0,1,0,1.3,0c0.2,0,0.4,0,0.6,0c0.2,0,0.4,0,0.6,0c0.1,0,0.2,0,0.2-0.2
		c0-0.1-0.1-0.1-0.3-0.1c-0.4,0-0.6,0-0.6-0.2l0-0.2l0.7-2.7h3c-0.4,1.7-0.6,2.6-0.7,2.8c-0.1,0.3-0.3,0.3-0.9,0.3
		c-0.1,0-0.2,0-0.2,0.2c0,0.1,0.1,0.1,0.1,0.1c0.3,0,1,0,1.3,0c0.2,0,0.4,0,0.6,0c0.2,0,0.4,0,0.6,0c0.1,0,0.2,0,0.2-0.2
		c0-0.1-0.1-0.1-0.3-0.1c-0.4,0-0.6,0-0.6-0.2l0-0.2L106.2,73.9z"/>
	<path d="M109.7,73.1c0.1-0.1,0.1-0.2,0.1-0.2c0-0.2-0.2-0.4-0.4-0.4c-0.3,0-0.3,0.2-0.4,0.3l-0.9,3l0,0.1l0.3,0.2
		c0,0,0.1,0,0.1-0.1L109.7,73.1z"/>
	<path d="M119.9,75c0.1-0.1,0.2-0.1,0.2-0.2s-0.1-0.2-0.2-0.2c0,0,0,0-0.2,0.1l-5.5,2.6c-0.1,0-0.2,0.1-0.2,0.2s0.1,0.2,0.2,0.2
		l5.5,2.6c0.1,0.1,0.1,0.1,0.2,0.1c0.1,0,0.2-0.1,0.2-0.2s-0.1-0.2-0.2-0.2l-5.2-2.5L119.9,75z"/>
	<path d="M126.2,80c-0.4,0-1-0.2-1.2-1.2c-0.1-0.6-0.1-1.5-0.1-2.1c0-0.6,0-1.3,0.1-1.8c0.2-1.2,0.9-1.3,1.2-1.3
		c0.3,0,1,0.2,1.2,1.2c0.1,0.6,0.1,1.3,0.1,1.9c0,0.7,0,1.4-0.1,2.1C127.2,79.7,126.7,80,126.2,80z M128.3,76.8c0-0.8,0-1.6-0.4-2.3
		c-0.5-1-1.3-1.1-1.7-1.1c-0.6,0-1.3,0.3-1.7,1.2c-0.3,0.7-0.4,1.5-0.4,2.3c0,0.7,0,1.6,0.4,2.4c0.4,0.8,1.2,1,1.6,1
		c0.5,0,1.3-0.2,1.7-1.2C128.3,78.3,128.3,77.6,128.3,76.8z"/>
	<path d="M57.8,86.2c0.1-0.3,0.1-0.3,0.6-0.3c0.2,0,0.2,0,0.2-0.2c0,0,0-0.1-0.1-0.1c-0.2,0-0.7,0-0.9,0c-0.1,0-0.4,0-0.5,0
		c-0.1,0-0.3,0-0.4,0c0,0-0.1,0-0.1,0.2c0,0.1,0.1,0.1,0.2,0.1c0,0,0.1,0,0.3,0c0.1,0,0.2,0,0.2,0.1c0,0,0,0,0,0.2l-0.4,1.6h-2.3
		l0.4-1.6c0.1-0.2,0.1-0.3,0.6-0.3c0.1,0,0.2,0,0.2-0.2c0,0,0-0.1-0.1-0.1c-0.2,0-0.7,0-0.9,0c-0.1,0-0.4,0-0.5,0
		c-0.1,0-0.3,0-0.4,0c0,0-0.1,0-0.1,0.2c0,0.1,0.1,0.1,0.2,0.1c0,0,0.1,0,0.3,0c0.1,0,0.2,0,0.2,0.1c0,0,0,0,0,0.2l-0.9,3.7
		c-0.1,0.2-0.1,0.3-0.6,0.3c-0.1,0-0.2,0-0.2,0.1l0.1,0.1c0.2,0,0.7,0,0.9,0c0.1,0,0.4,0,0.5,0c0.1,0,0.3,0,0.4,0c0,0,0.1,0,0.1-0.1
		c0-0.1-0.1-0.1-0.2-0.1c-0.1,0-0.1,0-0.3,0c-0.2,0-0.2,0-0.2-0.1c0,0,0,0,0-0.2l0.5-1.8h2.3l-0.5,1.8c-0.1,0.2-0.1,0.3-0.6,0.3
		c-0.1,0-0.2,0-0.2,0.1l0.1,0.1c0.2,0,0.7,0,0.9,0c0.1,0,0.4,0,0.5,0c0.1,0,0.3,0,0.4,0c0,0,0.1,0,0.1-0.1c0-0.1-0.1-0.1-0.2-0.1
		c-0.1,0-0.1,0-0.3,0c-0.2,0-0.2,0-0.2-0.1l0-0.2L57.8,86.2z"/>
	<path d="M60.8,85.1l0-0.2c0-0.2-0.2-0.3-0.3-0.3c-0.2,0-0.3,0.2-0.3,0.2L59.5,87l0,0.1l0.2,0.1l0.1-0.1L60.8,85.1z"/>
	<polyline points="51.9,91.6 61.7,91.6 61.7,92 51.9,92 	"/>
	<path d="M56.8,97.7c-0.3,0-0.6-0.2-0.8-0.5c-0.1-0.2-0.2-0.6-0.2-1c0-0.7,0.4-1.2,1-1.2c0.3,0,0.5,0.1,0.7,0.4
		c0.2,0.3,0.2,0.6,0.2,1c0,0.4,0,0.7-0.2,1C57.4,97.5,57.1,97.7,56.8,97.7z M55.9,95.5c0-0.6,0-1.1,0.3-1.5c0.2-0.4,0.6-0.6,1.1-0.6
		c0.2,0,0.5,0.1,0.6,0.2c-0.2,0-0.3,0.1-0.3,0.3c0,0.2,0.1,0.3,0.3,0.3s0.3-0.1,0.3-0.3c0-0.4-0.3-0.8-1-0.8c-1,0-2,0.9-2,2.4
		c0,1.8,0.9,2.3,1.6,2.3c0.9,0,1.6-0.6,1.6-1.6c0-0.9-0.7-1.5-1.5-1.5C56.3,94.8,56,95.2,55.9,95.5z"/>
	<path d="M64.9,94.3c0-0.7-0.2-1-0.6-1c-0.3,0-0.5,0.2-0.5,0.5c0,0.3,0.2,0.5,0.5,0.5c0.1,0,0.2,0,0.3-0.1l0,0c0,0,0,0,0,0.1
		c0,0.7-0.3,1.3-0.7,1.7c-0.1,0.1-0.1,0.1-0.1,0.2l0.1,0.1C64.1,96.2,64.9,95.5,64.9,94.3z"/>
	<path d="M125.3,91.2c0.1-0.8,0.4-1.1,1.1-1.1c0.6,0,0.8,0.3,1,1.1H125.3z M128.4,92.7c-0.5,0.8-0.9,1-1.5,1c-0.6,0-1-0.3-1.3-0.9
		c-0.2-0.4-0.2-0.7-0.3-1.3h3.1c-0.1-0.6-0.2-0.9-0.4-1.3c-0.3-0.4-0.8-0.6-1.3-0.6c-0.5,0-1,0.2-1.3,0.5c-0.5,0.4-0.7,1.1-0.7,1.9
		c0,1.4,0.7,2.2,1.9,2.2c0.9,0,1.7-0.6,2.1-1.7L128.4,92.7z M123.6,91.2l0-1.4h-0.1l0,0l-0.1,0.1c-0.1,0-0.2,0-0.3-0.1
		c-0.2-0.1-0.4-0.1-0.7-0.1c-0.8,0-1.4,0.5-1.4,1.2c0,0.6,0.3,1,1.2,1.4l0.6,0.3c0.3,0.2,0.5,0.4,0.5,0.7c0,0.4-0.3,0.7-0.8,0.7
		c-0.3,0-0.6-0.1-0.8-0.3c-0.2-0.2-0.3-0.5-0.4-1h-0.2v1.6h0.1c0.1-0.1,0.1-0.1,0.2-0.1c0.1,0,0.2,0,0.5,0.1
		c0.3,0.1,0.5,0.1,0.7,0.1c0.8,0,1.4-0.6,1.4-1.3c0-0.5-0.2-0.8-0.8-1.2l-1.1-0.6c-0.3-0.2-0.4-0.4-0.4-0.7c0-0.4,0.3-0.7,0.8-0.7
		c0.6,0,0.9,0.3,1.1,1.2H123.6z M118.9,87.5c-0.3,0-0.5,0.2-0.5,0.5s0.2,0.5,0.5,0.5c0.3,0,0.5-0.2,0.5-0.5
		C119.4,87.7,119.2,87.5,118.9,87.5z M119.4,89.7l-1.5,0.5v0.1l0.1,0c0.1,0,0.2,0,0.3,0c0.2,0,0.3,0.2,0.3,0.6v2.3
		c0,0.7-0.1,0.8-0.8,0.9v0.1h2.4v-0.1c-0.7,0-0.7-0.1-0.7-0.9L119.4,89.7L119.4,89.7z M116.1,89.8V90c0.3,0.1,0.4,0.1,0.4,0.3
		c0,0.1-0.1,0.4-0.2,0.7l-0.9,2.2l-0.8-2.2c-0.2-0.5-0.2-0.5-0.2-0.6c0-0.2,0.1-0.3,0.6-0.4v-0.1h-2V90c0.4,0,0.5,0.1,0.7,0.7
		c0.1,0.2,0.1,0.4,0.2,0.6l-0.9,2l-1-2.6c0-0.1-0.1-0.2-0.1-0.3c0-0.2,0.1-0.3,0.5-0.3v-0.1h-1.8V90c0.2,0,0.3,0.1,0.5,0.6l1.3,3.4
		c0.1,0.3,0.2,0.4,0.3,0.4c0,0,0.1-0.1,0.2-0.4l1.1-2.4l0.9,2.4c0.1,0.4,0.2,0.4,0.2,0.4c0.1,0,0.1-0.1,0.3-0.5l1.4-3.4
		c0.2-0.4,0.2-0.5,0.4-0.5v-0.1H116.1z M107.2,90.4c0.1,0,0.2,0,0.3,0c0.2,0,0.3,0.2,0.3,0.6v2.5c0,0.5-0.1,0.6-0.7,0.7v0.1h2.4
		v-0.1c-0.7,0-0.8-0.2-0.8-0.7v-2.2c0-0.3,0.4-0.8,0.7-0.8c0.1,0,0.1,0,0.3,0.1c0.2,0.1,0.3,0.2,0.4,0.2c0.2,0,0.4-0.2,0.4-0.4
		c0-0.3-0.2-0.5-0.5-0.5c-0.4,0-0.7,0.2-1.2,0.9v-0.9l0,0c-0.5,0.2-0.9,0.3-1.5,0.5V90.4z M103.7,91.2c0.1-0.8,0.4-1.1,1.1-1.1
		s0.8,0.3,1,1.1H103.7z M106.8,92.7c-0.5,0.8-0.9,1-1.5,1c-0.6,0-1-0.3-1.3-0.9c-0.2-0.4-0.2-0.7-0.3-1.3h3.1
		c-0.1-0.6-0.2-0.9-0.4-1.3c-0.3-0.4-0.8-0.6-1.3-0.6c-0.5,0-1,0.2-1.3,0.5c-0.5,0.4-0.7,1.1-0.7,1.9c0,1.4,0.7,2.2,1.9,2.2
		c0.9,0,1.7-0.6,2.1-1.7L106.8,92.7z M99.3,90.9c0.4-0.5,0.7-0.6,1.1-0.6c0.5,0,0.7,0.4,0.7,1.1v2c0,0.7-0.1,0.8-0.7,0.9v0.1h2.1
		v-0.1c-0.5-0.1-0.6-0.2-0.6-0.9v-2c0-1-0.4-1.6-1.2-1.6c-0.6,0-1,0.2-1.5,0.8v-3l0,0c-0.3,0.1-0.6,0.2-1.1,0.4l-0.3,0.1v0.2l0.1,0
		c0.4,0,0.5,0.1,0.5,0.5v4.7c0,0.7-0.1,0.8-0.6,0.9v0.1h2.2v-0.1c-0.6-0.1-0.7-0.2-0.7-0.9V90.9z M97.5,89.8h-1v-1.2
		c0-0.1,0-0.1-0.1-0.1c-0.1,0.1-0.1,0.2-0.2,0.3c-0.4,0.5-0.8,1-1,1.1c-0.1,0.1-0.2,0.1-0.2,0.2l0,0.1h0.5v3c0,0.8,0.3,1.3,0.9,1.3
		c0.5,0,0.9-0.2,1.2-0.8l-0.1-0.1c-0.2,0.2-0.4,0.3-0.6,0.3c-0.4,0-0.5-0.3-0.5-0.9v-2.8h1V89.8z M92.3,90c0.8,0,1.4,1,1.4,2.3
		c0,1.1-0.4,1.8-1.2,1.8c-0.4,0-0.8-0.2-1-0.6c-0.3-0.5-0.4-1.2-0.4-1.9C91.2,90.6,91.6,90,92.3,90z M92.5,89.7
		c-1.3,0-2.2,1-2.2,2.3c0,1.3,0.9,2.4,2.2,2.4c1.3,0,2.2-1.1,2.2-2.4C94.7,90.7,93.8,89.7,92.5,89.7z"/>
</g>
</svg>
